name Run_50002_IK.mot
datacolumns 164
datarows 4
range 0.69 0.72
endheader

time	         pelvis_tilt	         pelvis_list	     pelvis_rotation	           pelvis_tx	           pelvis_ty	           pelvis_tz	       hip_flexion_r	     hip_adduction_r	      hip_rotation_r	        knee_angle_r	       ankle_angle_r	       hip_flexion_l	     hip_adduction_l	      hip_rotation_l	        knee_angle_l	       ankle_angle_l	    lumbar_extension	      lumbar_bending	     lumbar_rotation	          arm_flex_r	           arm_add_r	           arm_rot_r	        elbow_flex_r	           pro_sup_r	          arm_flex_l	           arm_add_l	           arm_rot_l	        elbow_flex_l	           pro_sup_l	    subtalar_angle_r	         mtp_angle_r	    subtalar_angle_l	         mtp_angle_l	        wrist_flex_r	         wrist_dev_r	        wrist_flex_l	         wrist_dev_l	             LASI_tx	             LASI_ty	             LASI_tz	             RASI_tx	             RASI_ty	             RASI_tz	             LPSI_tx	             LPSI_ty	             LPSI_tz	             RPSI_tx	             RPSI_ty	             RPSI_tz	             RTH1_tx	             RTH1_ty	             RTH1_tz	             RTH2_tx	             RTH2_ty	             RTH2_tz	             RTH3_tx	             RTH3_ty	             RTH3_tz	             LTH1_tx	             LTH1_ty	             LTH1_tz	             LTH2_tx	             LTH2_ty	             LTH2_tz	             LTH3_tx	             LTH3_ty	             LTH3_tz	             RTB1_tx	             RTB1_ty	             RTB1_tz	             RTB2_tx	             RTB2_ty	             RTB2_tz	             RTB3_tx	             RTB3_ty	             RTB3_tz	             LTB1_tx	             LTB1_ty	             LTB1_tz	             LTB2_tx	             LTB2_ty	             LTB2_tz	             LTB3_tx	             LTB3_ty	             LTB3_tz	             RCAL_tx	             RCAL_ty	             RCAL_tz	             RTOE_tx	             RTOE_ty	             RTOE_tz	             RMT5_tx	             RMT5_ty	             RMT5_tz	             LCAL_tx	             LCAL_ty	             LCAL_tz	             LTOE_tx	             LTOE_ty	             LTOE_tz	             LMT5_tx	             LMT5_ty	             LMT5_tz	             LACR_tx	             LACR_ty	             LACR_tz	             RACR_tx	             RACR_ty	             RACR_tz	             CLAV_tx	             CLAV_ty	             CLAV_tz	               C7_tx	               C7_ty	               C7_tz	             RUA1_tx	             RUA1_ty	             RUA1_tz	             RUA2_tx	             RUA2_ty	             RUA2_tz	             RUA3_tx	             RUA3_ty	             RUA3_tz	             RLEL_tx	             RLEL_ty	             RLEL_tz	             RMEL_tx	             RMEL_ty	             RMEL_tz	             LUA1_tx	             LUA1_ty	             LUA1_tz	             LUA2_tx	             LUA2_ty	             LUA2_tz	             LUA3_tx	             LUA3_ty	             LUA3_tz	             LLEL_tx	             LLEL_ty	             LLEL_tz	             LMEL_tx	             LMEL_ty	             LMEL_tz	      RFAsuperior_tx	      RFAsuperior_ty	      RFAsuperior_tz	        RFAradius_tx	        RFAradius_ty	        RFAradius_tz	          RFAulna_tx	          RFAulna_ty	          RFAulna_tz	      LFAsuperior_tx	      LFAsuperior_ty	      LFAsuperior_tz	        LFAradius_tx	        LFAradius_ty	        LFAradius_tz	          LFAulna_tx	          LFAulna_ty	          LFAulna_tz	
0.69	        -14.57983206	          1.02447479	         -3.01336607	          0.98001133	          0.97291544	         -0.34762854	         16.40797311	          4.23387383	          1.20033230	        -35.38556428	         24.20911748	         52.97587786	         -1.38220115	         -2.42978454	       -110.84529967	          7.39678536	          3.67128976	          4.06481775	         12.54691575	        -21.46490401	        -27.07613281	        -13.79612797	        105.59481762	        107.78743569	        -45.50791639	        -19.14537607	         -6.70617245	         99.70526294	        117.77041743	          0.00000000	          0.00000000	          0.00000000	          0.00000000	          0.00000000	          0.00000000	          0.00000000	          0.00000000	          1.00150089	          1.01382383	         -0.47470261	          0.99229613	          1.00876401	         -0.22023334	          0.84517405	          1.08154642	         -0.40930379	          0.83780867	          1.07395615	         -0.29621258	          0.90635933	          0.89388950	         -0.17868441	          0.84935741	          0.74964240	         -0.20989155	          0.89010153	          0.59392459	         -0.22397124	          0.96980409	          0.90114425	         -0.53225221	          0.98358183	          0.74650173	         -0.50924353	          1.10335316	          0.65920872	         -0.50957310	          0.87528131	          0.34235983	         -0.31007225	          0.78504004	          0.33408554	         -0.24044044	          0.74915339	          0.19662647	         -0.32774072	          1.09727437	          0.48056789	         -0.44664732	          0.96392969	          0.52264864	         -0.49979474	          0.88443167	          0.43145317	         -0.44581006	          0.56978097	          0.12530155	         -0.33493314	          0.80590557	          0.06909628	         -0.35802685	          0.75010727	          0.04951516	         -0.26479318	          0.70823509	          0.49824888	         -0.41697200	          0.79224956	          0.27589173	         -0.42994234	          0.74138931	          0.31288790	         -0.52325156	          0.95493974	          1.51739356	         -0.48073599	          1.01223572	          1.47477267	         -0.16066115	          1.04790105	          1.45370061	         -0.29750240	          0.91882063	          1.52529907	         -0.31368261	          0.92242057	          1.37004089	         -0.08427730	          0.97218172	          1.31598898	         -0.06076349	          0.91611302	          1.24049695	         -0.00613071	          0.89605329	          1.18186489	          0.02979690	          0.88533377	          1.14728456	         -0.05345088	          0.83426531	          1.45499303	         -0.51882160	          0.83616598	          1.38738822	         -0.57042495	          0.74440564	          1.35759701	         -0.58707401	          0.70291614	          1.30673085	         -0.61765232	          0.68787779	          1.27671921	         -0.53368317	          0.99562701	          1.13384464	          0.01138737	          1.12956812	          1.11048660	         -0.10888935	          1.12243984	          1.06125667	         -0.06055376	          0.73603838	          1.22510747	         -0.63052862	          0.87742676	          1.11385286	         -0.56101339	          0.84436986	          1.08108923	         -0.61578239	
0.7	        -14.62827948	          1.60615584	         -2.71884364	          0.98140887	          0.97634800	         -0.34829319	         11.89006050	          3.18761626	          1.08631496	        -32.26433609	         21.14884980	         55.56636327	         -0.66051868	         -2.69652937	       -107.55119478	          7.64723170	          3.94740597	          3.16080939	         13.74563926	        -20.68404760	        -26.57830171	        -13.82666511	        108.77211093	        108.56846184	        -47.76399256	        -19.84614695	         -7.25664981	        101.99514854	        113.92035386	          0.00000000	          0.00000000	          0.00000000	          0.00000000	          0.00000000	          0.00000000	          0.00000000	          0.00000000	          1.00167294	          1.01711731	         -0.47443555	          0.99395071	          1.00958104	         -0.22080060	          0.84545801	          1.08496610	         -0.40876694	          0.83925137	          1.07630112	         -0.29578964	          0.90394142	          0.89571822	         -0.17969401	          0.83713855	          0.75561524	         -0.20996598	          0.86562975	          0.59746047	         -0.22436362	          0.97381536	          0.90833457	         -0.53350101	          0.99291555	          0.75421816	         -0.50982174	          1.11726744	          0.67345463	         -0.50895592	          0.83805041	          0.34651224	         -0.30804784	          0.74758489	          0.34111044	         -0.23943134	          0.70825270	          0.20389941	         -0.32623218	          1.12304077	          0.49057696	         -0.44535148	          0.98608507	          0.51922829	         -0.49895865	          0.91571839	          0.42038319	         -0.44474904	          0.52830115	          0.13987527	         -0.33238936	          0.75790204	          0.06806997	         -0.35844142	          0.70126946	          0.05009482	         -0.26514459	          0.73337548	          0.46888202	         -0.41687107	          0.84115335	          0.25683711	         -0.42814262	          0.78610626	          0.28713759	         -0.52153291	          0.95151222	          1.52238824	         -0.48060360	          1.01598583	          1.47944078	         -0.16291953	          1.04818386	          1.45768801	         -0.30000474	          0.91856170	          1.52907683	         -0.31309397	          0.92967742	          1.37422179	         -0.08351206	          0.98019885	          1.32011867	         -0.06369996	          0.92662116	          1.24332512	         -0.00877796	          0.90887468	          1.18338326	          0.02674139	          0.89758043	          1.15000956	         -0.05717910	          0.82908349	          1.46353420	         -0.51514488	          0.82782695	          1.39732617	         -0.56876946	          0.73501041	          1.36947523	         -0.58361747	          0.69147912	          1.31967152	         -0.61288266	          0.67793168	          1.28969676	         -0.52881112	          1.01026508	          1.14202558	          0.00397149	          1.14054041	          1.12959504	         -0.12150834	          1.13961253	          1.07918196	         -0.07408733	          0.72383922	          1.23841496	         -0.62662175	          0.86824380	          1.12957804	         -0.56201427	          0.83216596	          1.09379690	         -0.61276502	
0.71	        -14.77316194	          2.19579549	         -2.28872393	          0.98370291	          0.98035793	         -0.34848328	          7.32856967	          2.17875007	          0.73427776	        -28.88190322	         16.44690399	         57.73610879	          0.14676739	         -2.97584577	       -103.56596948	          7.89416060	          4.47832824	          2.13043348	         14.51009127	        -19.86568967	        -26.03039408	        -13.51003825	        112.00947832	        110.29290601	        -50.37497541	        -20.35532870	         -8.10956767	        104.55105323	        110.12289210	          0.00000000	          0.00000000	          0.00000000	          0.00000000	          0.00000000	          0.00000000	          0.00000000	          0.00000000	          1.00264311	          1.02089218	         -0.47350966	          0.99709147	          1.01101437	         -0.22030662	          0.84654068	          1.08886830	         -0.40757055	          0.84205793	          1.07921086	         -0.29487212	          0.90237760	          0.89865058	         -0.18048004	          0.82650699	          0.76353969	         -0.20982444	          0.84227210	          0.60432948	         -0.22463612	          0.97800734	          0.91716824	         -0.53396712	          1.00108205	          0.76258516	         -0.50909514	          1.12834368	          0.68732262	         -0.50768879	          0.80096079	          0.35404463	         -0.30614309	          0.71013940	          0.35191998	         -0.23838099	          0.66865354	          0.21453051	         -0.32511965	          1.14661526	          0.50049960	         -0.44356197	          1.00730792	          0.51460796	         -0.49735107	          0.94735952	          0.40895065	         -0.44274435	          0.48894228	          0.15863670	         -0.32914206	          0.70828033	          0.06698191	         -0.35858695	          0.65122266	          0.05124694	         -0.26550596	          0.76098480	          0.43782599	         -0.41519857	          0.89152871	          0.23912362	         -0.42586530	          0.83289030	          0.26230515	         -0.51894715	          0.94863638	          1.52811473	         -0.48063800	          1.01873432	          1.48515485	         -0.16570418	          1.04809430	          1.46261757	         -0.30309832	          0.91819331	          1.53335365	         -0.31304465	          0.93605830	          1.37961919	         -0.08357855	          0.98735413	          1.32548751	         -0.06673310	          0.93671259	          1.24743279	         -0.01123992	          0.92081199	          1.18629264	          0.02365450	          0.90852963	          1.15419569	         -0.06094988	          0.82489469	          1.47324100	         -0.51189228	          0.82061946	          1.40776541	         -0.56678178	          0.72677038	          1.38205817	         -0.57996389	          0.68112838	          1.33334237	         -0.60750404	          0.66905491	          1.30368329	         -0.52320973	          1.02350329	          1.15240271	         -0.00357856	          1.14883099	          1.15019941	         -0.13439988	          1.15434338	          1.09974790	         -0.08735488	          0.71304894	          1.25277019	         -0.62194372	          0.86025428	          1.14641076	         -0.56200895	          0.82149281	          1.10766342	         -0.60843135	
0.72	        -15.01873075	          2.74973872	         -1.62346434	          0.98680581	          0.98461813	         -0.34847009	          2.83878755	          1.27383013	         -0.03094444	        -25.21923418	         10.36814836	         59.52495452	          1.09459483	         -3.23059420	        -98.98300675	          8.28771964	          5.23552191	          1.03521088	         14.75420366	        -18.99613212	        -25.48805030	        -12.84487461	        115.16533319	        112.75534669	        -53.23550708	        -20.59089195	         -9.25033117	        107.11686504	        106.92718254	          0.00000000	          0.00000000	          0.00000000	          0.00000000	          0.00000000	          0.00000000	          0.00000000	          0.00000000	          1.00438914	          1.02498385	         -0.47198792	          1.00171528	          1.01282662	         -0.21955706	          0.84839918	          1.09308811	         -0.40577795	          0.84603492	          1.08270616	         -0.29322653	          0.90263901	          0.90250619	         -0.18109808	          0.81772553	          0.77290026	         -0.20898959	          0.82057378	          0.61428912	         -0.22459372	          0.98155019	          0.92659192	         -0.53391425	          1.00794253	          0.77123392	         -0.50723186	          1.13678692	          0.70013051	         -0.50606917	          0.76549246	          0.36451130	         -0.30415760	          0.67405632	          0.36591928	         -0.23712158	          0.63212067	          0.22763297	         -0.32390697	          1.16792432	          0.50999382	         -0.44126258	          1.02781532	          0.50880418	         -0.49501695	          0.97955192	          0.39742774	         -0.43987105	          0.45330409	          0.18010754	         -0.32576844	          0.65896857	          0.06617483	         -0.35861205	          0.60194728	          0.05333250	         -0.26583518	          0.79114003	          0.40561161	         -0.41196974	          0.94346084	          0.22335765	         -0.42279167	          0.88192513	          0.23895318	         -0.51536731	          0.94639667	          1.53405173	         -0.48083330	          1.02070047	          1.49132823	         -0.16882830	          1.04772730	          1.46799843	         -0.30654546	          0.91771371	          1.53759309	         -0.31349336	          0.94120233	          1.38535492	         -0.08470542	          0.99393318	          1.33146471	         -0.06967235	          0.94693863	          1.25225674	         -0.01330951	          0.93223190	          1.19024199	          0.02084239	          0.91808553	          1.15928443	         -0.06413251	          0.82181129	          1.48329715	         -0.50920527	          0.81477041	          1.41797616	         -0.56455478	          0.71987541	          1.39479290	         -0.57597217	          0.67196735	          1.34716125	         -0.60159112	          0.66156964	          1.31808001	         -0.51691404	          1.03530765	          1.16375573	         -0.01091882	          1.15466177	          1.17123629	         -0.14696819	          1.16659383	          1.12183262	         -0.09981555	          0.70341057	          1.26721500	         -0.61661930	          0.85305812	          1.16304466	         -0.56110355	          0.81225296	          1.12185551	         -0.60343721	
